<?xml version="1.0" encoding="UTF-8"?>
<svg xmlns="http://www.w3.org/2000/svg" xmlns:xlink="http://www.w3.org/1999/xlink" width="32px" height="32px" viewBox="0 0 32 32" version="1.1">
<g id="surface1">
<path style=" stroke:none;fill-rule:nonzero;fill:rgb(0%,0%,0%);fill-opacity:1;" d="M 31.992188 14.1875 C 31.96875 14.03125 31.859375 13.902344 31.710938 13.851562 L 8.84375 5.757812 C 7.992188 5.457031 7.058594 5.902344 6.757812 6.753906 L 4.785156 12.316406 C 4.640625 12.726562 4.667969 13.175781 4.851562 13.566406 C 5.039062 13.957031 5.375 14.257812 5.78125 14.402344 L 12.804688 16.886719 L 12.804688 20.183594 C 12.765625 20.179688 12.734375 20.171875 12.695312 20.171875 L 2.246094 20.171875 C 1.003906 20.171875 0 21.175781 0 22.417969 C 0 23.65625 1.003906 24.664062 2.246094 24.664062 L 12.695312 24.664062 C 12.734375 24.664062 12.765625 24.65625 12.804688 24.652344 L 12.804688 25.214844 C 12.804688 25.832031 13.304688 26.335938 13.925781 26.335938 C 14.546875 26.335938 15.050781 25.832031 15.050781 25.214844 L 15.050781 17.683594 L 23.226562 20.578125 C 23.765625 20.765625 24.359375 20.664062 24.800781 20.304688 L 25.125 20.042969 L 27.867188 21.015625 C 28.277344 21.160156 28.726562 21.136719 29.117188 20.949219 C 29.507812 20.765625 29.808594 20.429688 29.953125 20.019531 L 30.535156 18.382812 C 30.816406 17.578125 30.429688 16.707031 29.671875 16.359375 L 31.839844 14.601562 C 31.960938 14.5 32.019531 14.34375 31.992188 14.1875 Z M 16.527344 14.023438 C 16.273438 14.75 15.722656 15.316406 15.050781 15.617188 L 15.050781 14.273438 C 15.230469 14.101562 15.382812 13.894531 15.46875 13.648438 C 15.617188 13.238281 15.589844 12.792969 15.402344 12.398438 C 15.214844 12.003906 14.882812 11.707031 14.472656 11.558594 C 14.292969 11.496094 14.109375 11.464844 13.925781 11.464844 C 13.234375 11.464844 12.613281 11.902344 12.382812 12.558594 C 12.160156 13.1875 12.347656 13.859375 12.804688 14.292969 L 12.804688 15.609375 C 11.503906 15.03125 10.839844 13.546875 11.324219 12.183594 C 11.816406 10.785156 13.4375 10 14.847656 10.5 C 15.542969 10.746094 16.097656 11.25 16.417969 11.914062 C 16.734375 12.578125 16.773438 13.328125 16.527344 14.023438 Z M 16.527344 14.023438 "/>
</g>
</svg>
